<svg id="Capa_1" enable-background="new 0 0 512 512" height="512" viewBox="0 0 512 512" width="512" xmlns="http://www.w3.org/2000/svg"><g><path d="m151 296c5.523 0 10-4.477 10-10v-65.858l12.929 12.929c3.905 3.905 10.237 3.905 14.143 0 3.905-3.905 3.905-10.237 0-14.143l-30-30c-3.905-3.905-10.237-3.905-14.143 0l-30 30c-3.905 3.905-3.905 10.237 0 14.143 3.905 3.905 10.237 3.905 14.143 0l12.928-12.929v65.858c0 5.523 4.477 10 10 10z"/><path d="m401 406v-210c0-5.523-4.477-10-10-10h-90c-5.523 0-10 4.477-10 10v65h-80c-5.523 0-10 4.477-10 10v65h-80c-5.523 0-10 4.477-10 10v60c0 5.523 4.477 10 10 10h270c5.523 0 10-4.477 10-10zm-200-10h-70v-40h70zm90 0h-70v-115h70zm90 0h-70v-190h70z"/><path d="m10 476h201c5.523 0 10-4.477 10-10s-4.477-10-10-10h-191v-310h472v310h-191c-5.523 0-10 4.477-10 10s4.477 10 10 10h201c5.523 0 10-4.477 10-10v-420c0-5.523-4.477-10-10-10h-492c-5.523 0-10 4.477-10 10v420c0 5.523 4.477 10 10 10zm10-420h286v20c0 5.523 4.477 10 10 10s10-4.477 10-10v-20h40v20c0 5.523 4.477 10 10 10s10-4.477 10-10v-20h40v20c0 5.523 4.477 10 10 10s10-4.477 10-10v-20h46v70h-472z"/><circle cx="256" cy="466" r="10"/></g></svg>